<svg width="1090" height="240" viewBox="0 0 1090 240" fill="none" xmlns="http://www.w3.org/2000/svg">
<path d="M127.354 233.386H478.982C550.473 233.386 601.664 186.164 601.664 120.088C601.664 53.8362 550.649 6.61414 478.982 6.61414L127.354 6.61414C55.6863 6.61414 6.61365 53.8362 6.61365 120.088C6.61365 186.164 55.8628 233.386 127.354 233.386Z" fill="#313638"/>
<path d="M960.971 6.61414H478.981C550.648 6.61414 601.663 53.8362 601.663 120.088C601.663 186.164 550.472 233.386 478.981 233.386H960.971C1032.46 233.386 1083.39 186.164 1083.39 120.088C1083.39 53.8362 1032.64 6.61414 960.971 6.61414Z" fill="#f06543"/>
<path d="M514.184 148.459C500.239 148.459 490.707 138.063 490.707 122.909C490.707 107.756 500.239 97.36 514.184 97.36C528.483 97.36 537.662 107.403 537.662 122.909C537.662 138.063 528.129 148.459 514.184 148.459ZM514.184 171.893C542.604 171.893 563.257 151.278 563.257 122.909C563.257 94.3645 542.781 73.9251 514.184 73.9251C485.941 73.9251 465.112 94.717 465.112 122.909C465.112 151.102 485.941 171.893 514.184 171.893ZM312.069 169.25H337.664V108.285C341.018 101.765 347.902 97.1838 354.786 97.1838C363.789 97.1838 370.144 104.232 370.144 114.452V169.25H395.739V108.285C398.564 101.765 405.801 97.1838 413.038 97.1838C422.041 97.1838 428.042 104.232 428.042 114.452V169.25H453.638V109.694C453.638 87.8451 439.516 73.9251 417.628 73.9251C406.154 73.9251 396.798 78.154 389.208 87.4927C383.206 78.5064 374.204 73.9251 362.906 73.9251C351.609 73.9251 341.9 78.6826 336.075 86.7879V76.3919H312.069V169.25ZM153.73 169.25H179.325V108.285C182.679 101.765 189.563 97.1838 196.448 97.1838C205.45 97.1838 211.805 104.232 211.805 114.452V169.25H237.4V108.285C240.225 101.765 247.462 97.1838 254.699 97.1838C263.702 97.1838 269.704 104.232 269.704 114.452V169.25H295.299V109.694C295.299 87.8451 281.177 73.9251 259.289 73.9251C247.815 73.9251 238.46 78.154 230.869 87.4927C224.867 78.5064 215.865 73.9251 204.568 73.9251C193.27 73.9251 183.562 78.6826 177.737 86.7879V76.3919H153.73V169.25ZM122.662 67.5818C131.135" fill="#f09d51"/>
<path fill-rule="evenodd" clip-rule="evenodd" d="M909.769 137.89C909.769 144.409 912.593 147.581 918.418 147.581C920.915 147.563 923.381 147.023 925.656 145.995L928.833 167.316C924.243 169.43 918.595 170.487 912.593 170.487C894.588 170.487 883.644 159.739 883.644 141.59V46.0889H909.769V137.89ZM711.889 76.3841L733.201 131.289L750.545 76.3841H776.493L746.309 169.243H720.538L698.772 111.147L677.468 169.243H651.697L621.16 76.3841H648.52L665.771 131.484L687 76.3841H711.889ZM994.499 143.35C990.086 146.17 985.673 147.579 980.554 147.579C972.434 147.579 967.668 143.174 967.668 135.774V99.1237H999.265V76.3936H967.668V54.016H941.543V76.3936H923.891V99.1237H941.543V138.064C941.543 158.856 955.311 171.895 977.2 171.895C987.261 171.895 995.911 169.428 1003.68 164.319L994.499 143.35ZM777.557 122.913C777.557 94.72 798.21 74.1041 826.1 74.1041C853.284 74.1041 871.113 93.1342 871.113 122.56C871.113 125.732 871.113 128.904 870.76 131.371H802.9C805.745 142.845 814.575 149.872 826.806 149.872C835.985 149.872 843.222 145.995 847.812 138.771L865.641 153.044C857.874 164.673 843.752 171.897 826.982 171.897C798.563 171.897 777.557 150.929 777.557 122.913ZM846.047 112.693C844.019 102.031 836.276 95.6011 825.57 95.6011C814.806 95.6011 806.566 102.21 803.368 112.693H846.047Z" fill="#313638"/>
<path fill-rule="evenodd" clip-rule="evenodd" d="M960.707 240H127.352C90.1346 240 58.2585 227.689 35.6342 206.325C12.9859 184.938 0 154.839 0 120.088C0 85.2615 12.9333 55.1164 35.5628 33.7018C58.1691 12.3091 90.0495 9.0111e-06 127.352 9.0111e-06L960.707 0C1035.53 0 1090 49.7061 1090 120.088C1090 190.306 1035.34 240 960.707 240ZM960.707 233.386H127.352C55.861 233.386 6.61179 186.164 6.61179 120.088C6.61179 53.8362 55.6845 6.61418 127.352 6.61418L960.707 6.61417C1032.37 6.61417 1083.39 53.8362 1083.39 120.088C1083.39 186.164 1032.2 233.386 960.707 233.386Z" fill="white"/>
</svg>
